P3
# CREATOR: GIMP PNM Filter Version 1.1
7 7
255
82
111
133
82
111
133
82
111
133
82
111
133
82
111
133
82
111
133
82
111
133
82
111
133
82
111
133
82
111
133
82
111
133
82
111
133
82
111
133
82
111
133
82
111
133
82
111
133
82
111
133
255
43
0
82
111
133
82
111
133
82
111
133
82
111
133
82
111
133
54
84
49
73
82
47
54
84
49
82
111
133
82
111
133
82
111
133
82
111
133
54
84
49
73
82
47
54
84
49
82
111
133
82
111
133
82
111
133
82
111
133
201
231
110
255
255
0
74
74
255
82
111
133
82
111
133
82
111
133
82
111
133
201
231
110
201
231
110
201
231
110
82
111
133
82
111
133
